<?xml version="1.0" encoding="UTF-8" standalone="no"?>
<!-- Created with Inkscape (http://www.inkscape.org/) -->

<svg
   width="512"
   height="512"
   viewBox="0 0 512 512"
   version="1.1"
   id="svg1"
   inkscape:version="1.3.2 (091e20e, 2023-11-25, custom)"
   sodipodi:docname="boussole.svg"
   xmlns:inkscape="http://www.inkscape.org/namespaces/inkscape"
   xmlns:sodipodi="http://sodipodi.sourceforge.net/DTD/sodipodi-0.dtd"
   xmlns="http://www.w3.org/2000/svg"
   xmlns:svg="http://www.w3.org/2000/svg">
  <sodipodi:namedview
     id="namedview1"
     pagecolor="#ffffff"
     bordercolor="#000000"
     borderopacity="0.25"
     inkscape:showpageshadow="2"
     inkscape:pageopacity="0.0"
     inkscape:pagecheckerboard="0"
     inkscape:deskcolor="#d1d1d1"
     inkscape:document-units="px"
     inkscape:zoom="1.4142136"
     inkscape:cx="160.15968"
     inkscape:cy="295.92418"
     inkscape:window-width="2560"
     inkscape:window-height="1369"
     inkscape:window-x="1072"
     inkscape:window-y="247"
     inkscape:window-maximized="1"
     inkscape:current-layer="layer2" />
  <defs
     id="defs1">
    <inkscape:path-effect
       effect="copy_rotate"
       starting_point="259.18479,255.99814"
       origin="256.00119,256"
       id="path-effect5"
       is_visible="true"
       lpeversion="1.2"
       lpesatellites=""
       method="normal"
       num_copies="4"
       starting_angle="45"
       rotation_angle="60"
       gap="-0.01"
       copies_to_360="true"
       mirror_copies="false"
       split_items="false"
       link_styles="false" />
    <inkscape:path-effect
       effect="copy_rotate"
       starting_point="296.08647,255.99814"
       origin="256,256"
       id="path-effect3"
       is_visible="true"
       lpeversion="1.2"
       lpesatellites=""
       method="normal"
       num_copies="4"
       starting_angle="0.0026585067"
       rotation_angle="90"
       gap="-0.01"
       copies_to_360="true"
       mirror_copies="false"
       split_items="false"
       link_styles="false" />
    <inkscape:path-effect
       effect="copy_rotate"
       starting_point="351.33192,212.17407"
       origin="256.00119,255.99814"
       id="path-effect2"
       is_visible="true"
       lpeversion="1.2"
       lpesatellites=""
       method="normal"
       num_copies="72"
       starting_angle="24.688507"
       rotation_angle="5"
       gap="-0.01"
       copies_to_360="true"
       mirror_copies="false"
       split_items="false"
       link_styles="false" />
  </defs>
  <g
     inkscape:label="Background"
     inkscape:groupmode="layer"
     id="layer1"
     style="display:inline">
    <ellipse
       style="fill:#000000;stroke-width:2.03291"
       id="path1"
       cx="256.00119"
       cy="255.99814"
       rx="255.99596"
       ry="255.99722" />
  </g>
  <g
     inkscape:groupmode="layer"
     id="layer2"
     inkscape:label="Angles"
     style="display:inline">
    <g
       id="g3">
      <g
         id="g2">
        <path
           style="fill:#f9f9f9;stroke-width:0.322681"
           id="rect2-1"
           width="1.4741669"
           height="33.06073"
           x="254.52702"
           y="21.93927"
           inkscape:path-effect="#path-effect2"
           sodipodi:type="rect"
           d="m 156.89894,43.949865 1.33941,-0.615737 13.80897,30.038714 -1.33942,0.615737 z m -18.10412,9.444238 1.28066,-0.730131 16.37446,28.720877 -1.28065,0.730131 z m -17.2121,10.986178 1.21215,-0.83897 18.81534,27.184457 -1.21214,0.83897 z m -16.18909,12.444505 1.13441,-0.941423 21.11303,25.441147 -1.13441,0.94142 z m -15.042879,13.808122 1.048045,-1.036711 23.250024,23.504213 -1.04804,1.03671 z m -13.782179,15.066652 0.953701,-1.12411 25.210077,21.3884 -0.9537,1.12411 z m -12.41659,16.21051 0.8521,-1.20295 26.978272,19.10981 -0.8521,1.20295 z m -10.9565,17.23101 0.744013,-1.27264 28.541141,16.68578 -0.744014,1.27264 z m -9.413027,18.12036 0.630264,-1.33264 29.886794,14.13475 -0.630264,1.33265 z m -7.797914,18.8718 0.511718,-1.3825 31.004991,11.47617 -0.511718,1.3825 z m -6.123455,19.47963 0.389278,-1.42184 31.887222,8.73023 -0.389278,1.42184 z m -4.402392,19.93919 0.263875,-1.45036 32.526771,5.91786 -0.263875,1.45036 z m -2.647824,20.24701 0.136464,-1.46783 32.918772,3.06044 -0.136464,1.46783 z m -0.873105,20.40074 0.008,-1.47414 33.060241,0.17973 -0.008,1.47415 z m 0.908258,20.39921 -0.120496,-1.46924 32.950102,-2.70234 0.120497,1.46924 z m 2.682711,20.24242 -0.24809,-1.45315 32.589193,-5.56384 0.24809,1.45314 z m 4.436745,19.93157 -0.373796,-1.42599 31.980261,-8.383 0.373795,1.42598 z m 6.157013,19.46905 -0.496656,-1.38799 31.127938,-11.13837 0.496657,1.38798 z m 7.830423,18.85833 -0.615737,-1.33941 30.038714,-13.80897 0.615737,1.33942 z m 9.444238,18.10412 -0.730131,-1.28066 28.720877,-16.37446 0.730131,1.28065 z m 10.986178,17.2121 -0.83897,-1.21215 27.184457,-18.81534 0.83897,1.21214 z m 12.444505,16.18909 -0.941423,-1.13441 25.441147,-21.11303 0.94142,1.13441 z m 13.808122,15.04288 -1.036711,-1.04805 23.504213,-23.25002 1.03671,1.04804 z m 15.066652,13.78218 -1.12411,-0.9537 21.3884,-25.21008 1.12411,0.9537 z m 16.21051,12.41659 -1.20295,-0.8521 19.10981,-26.97827 1.20295,0.8521 z m 17.23101,10.9565 -1.27264,-0.74401 16.68578,-28.54115 1.27264,0.74402 z m 18.12036,9.41303 -1.33264,-0.63027 14.13475,-29.88679 1.33265,0.63026 z m 18.8718,7.79791 -1.3825,-0.51172 11.47617,-31.00499 1.3825,0.51172 z m 19.47963,6.12345 -1.42184,-0.38927 8.73023,-31.88723 1.42184,0.38928 z m 19.93919,4.4024 -1.45036,-0.26388 5.91786,-32.52677 1.45036,0.26387 z m 20.24701,2.64782 -1.46783,-0.13646 3.06044,-32.91878 1.46783,0.13647 z m 20.40074,0.87311 -1.47414,-0.008 0.17973,-33.06024 1.47415,0.008 z m 20.39921,-0.90826 -1.46924,0.12049 -2.70234,-32.9501 1.46924,-0.1205 z m 20.24242,-2.68271 -1.45315,0.24809 -5.56384,-32.5892 1.45314,-0.24809 z m 19.93157,-4.43675 -1.42599,0.3738 -8.383,-31.98026 1.42598,-0.3738 z m 19.46905,-6.15701 -1.38799,0.49665 -11.13837,-31.12793 1.38798,-0.49666 z m 18.85833,-7.83043 -1.33941,0.61574 -13.80897,-30.03871 1.33942,-0.61574 z m 18.10412,-9.44423 -1.28066,0.73013 -16.37446,-28.72088 1.28065,-0.73013 z m 17.2121,-10.98618 -1.21215,0.83897 -18.81534,-27.18446 1.21214,-0.83897 z m 16.18909,-12.44451 -1.13441,0.94143 -21.11303,-25.44115 1.13441,-0.94142 z m 15.04288,-13.80812 -1.04805,1.03671 -23.25002,-23.50421 1.04804,-1.03671 z m 13.78218,-15.06665 -0.9537,1.12411 -25.21008,-21.3884 0.9537,-1.12411 z m 12.41659,-16.21051 -0.8521,1.20295 -26.97827,-19.10981 0.8521,-1.20295 z m 10.9565,-17.23101 -0.74401,1.27264 -28.54115,-16.68578 0.74402,-1.27264 z m 9.41303,-18.12036 -0.63027,1.33264 -29.88679,-14.13475 0.63026,-1.33265 z m 7.79791,-18.8718 -0.51172,1.3825 -31.00499,-11.47617 0.51172,-1.3825 z m 6.12345,-19.47963 -0.38927,1.42184 -31.88723,-8.73023 0.38928,-1.42184 z m 4.4024,-19.93919 -0.26388,1.45036 -32.52677,-5.91786 0.26387,-1.45036 z m 2.64782,-20.24701 -0.13646,1.46783 -32.91878,-3.06044 0.13647,-1.46783 z m 0.87311,-20.40074 -0.008,1.47414 -33.06024,-0.17973 0.008,-1.47415 z m -0.90826,-20.39921 0.12049,1.46924 -32.9501,2.70234 -0.1205,-1.46924 z m -2.68271,-20.24242 0.24809,1.45315 -32.5892,5.56384 -0.24809,-1.45314 z m -4.43675,-19.93157 0.3738,1.42599 -31.98026,8.383 -0.3738,-1.42598 z m -6.15701,-19.46905 0.49665,1.38799 -31.12793,11.13837 -0.49666,-1.38798 z m -7.83043,-18.85833 0.61574,1.33941 -30.03871,13.80897 -0.61574,-1.33942 z m -9.44423,-18.10412 0.73013,1.28066 -28.72088,16.37446 -0.73013,-1.28065 z m -10.98618,-17.2121 0.83897,1.21215 -27.18446,18.81534 -0.83897,-1.21214 z m -12.44451,-16.18909 0.94143,1.13441 -25.44115,21.11303 -0.94142,-1.13441 z m -13.80812,-15.042879 1.03671,1.048045 -23.50421,23.250024 -1.03671,-1.04804 z m -15.06665,-13.782179 1.12411,0.953701 -21.3884,25.210077 -1.12411,-0.9537 z m -16.21051,-12.41659 1.20295,0.8521 -19.10981,26.978272 -1.20295,-0.8521 z m -17.23101,-10.9565 1.27264,0.744013 -16.68578,28.541141 -1.27264,-0.744014 z m -18.12036,-9.413027 1.33264,0.630264 -14.13475,29.886794 -1.33265,-0.630264 z m -18.8718,-7.797914 1.3825,0.511718 -11.47617,31.004991 -1.3825,-0.511718 z m -19.47963,-6.123455 1.42184,0.389278 -8.73023,31.887222 -1.42184,-0.389278 z m -19.93919,-4.402392 1.45036,0.263875 -5.91786,32.526771 -1.45036,-0.263875 z m -20.24701,-2.647824 1.46783,0.136464 -3.06044,32.918772 -1.46783,-0.136464 z m -20.40074,-0.873105 1.47414,0.008 -0.17973,33.060241 -1.47415,-0.008 z m -20.39921,0.908258 1.46924,-0.120496 2.70234,32.950102 -1.46924,0.120497 z m -20.24242,2.682711 1.45315,-0.24809 5.56384,32.589193 -1.45314,0.24809 z m -19.93157,4.436745 1.42599,-0.373796 8.383,31.980261 -1.42598,0.373795 z m -19.46905,6.157013 1.38799,-0.496656 11.13837,31.127938 -1.38798,0.496657 z"
           ry="0" />
      </g>
    </g>
    <path
       style="fill:#f9f9f9;stroke-width:1.13978"
       id="rect3"
       width="6.3901186"
       height="47.497684"
       x="252.80495"
       y="19.631498"
       inkscape:path-effect="#path-effect3"
       sodipodi:type="rect"
       d="m 252.79398,19.631647 6.39012,-2.97e-4 0.002,47.497685 -6.39012,2.96e-4 z M 19.631647,259.20602 l -2.97e-4,-6.39012 47.497685,-0.002 2.96e-4,6.39012 z m 239.574373,233.16233 -6.39012,3e-4 -0.002,-47.49768 6.39012,-3e-4 z m 233.16233,-239.57437 3e-4,6.39012 -47.49768,0.002 -3e-4,-6.39012 z" />
    <text
       xml:space="preserve"
       style="font-size:42.6667px;fill:#f9f9f9;-inkscape-font-specification:Arial;font-family:Arial;font-weight:normal;font-style:normal;font-stretch:normal;font-variant:normal"
       x="240.04285"
       y="108.69001"
       id="text3"><tspan
         sodipodi:role="line"
         id="tspan3"
         x="240.04285"
         y="108.69001">N</tspan></text>
    <text
       xml:space="preserve"
       style="font-size:42.6667px;fill:#f9f9f9"
       x="-269.76044"
       y="-395.88681"
       id="text3-7"
       transform="scale(-1)"><tspan
         sodipodi:role="line"
         id="tspan3-0"
         x="-269.76044"
         y="-395.88681"
         style="font-style:normal;font-variant:normal;font-weight:normal;font-stretch:normal;font-size:42.6667px;font-family:Arial;-inkscape-font-specification:Arial">S</tspan></text>
    <text
       xml:space="preserve"
       style="font-size:42.6667px;fill:#f9f9f9;-inkscape-font-specification:Arial;font-family:Arial;font-weight:normal;font-style:normal;font-stretch:normal;font-variant:normal"
       x="241.78979"
       y="-402.03763"
       id="text3-7-9"
       transform="rotate(90)"><tspan
         sodipodi:role="line"
         id="tspan3-0-1"
         x="241.78979"
         y="-402.03763"
         style="font-size:42.6667px;-inkscape-font-specification:Arial;font-family:Arial;font-weight:normal;font-style:normal;font-stretch:normal;font-variant:normal">E</tspan></text>
    <text
       xml:space="preserve"
       style="font-size:29.3333px;fill:#f9f9f9"
       x="256"
       y="412.56064"
       id="text4"><tspan
         sodipodi:role="line"
         id="tspan4"
         x="256"
         y="412.56064" /></text>
    <text
       xml:space="preserve"
       style="font-size:42.6667px;fill:#f9f9f9"
       x="-272.79169"
       y="113.21693"
       id="text5"
       transform="rotate(-90)"><tspan
         sodipodi:role="line"
         id="tspan5"
         x="-272.79169"
         y="113.21693"
         style="font-style:normal;font-variant:normal;font-weight:normal;font-stretch:normal;font-size:42.6667px;font-family:Arial;-inkscape-font-specification:Arial">O</tspan></text>
    <path
       style="fill:#f9f9f9;stroke-width:0.999102"
       id="rect5"
       width="3.6587982"
       height="36.503143"
       x="254.52702"
       y="21.93927"
       inkscape:path-effect="#path-effect5"
       sodipodi:type="rect"
       d="m 89.452867,91.536464 2.587161,-2.587161 25.811622,25.811617 -2.58716,2.58716 z m 2.084787,331.011856 -2.587161,-2.58716 25.811617,-25.81162 2.58716,2.58716 z m 331.011856,-2.08478 -2.58716,2.58716 -25.81162,-25.81162 2.58716,-2.58716 z m -2.08478,-331.011863 2.58716,2.587161 -25.81162,25.811622 -2.58716,-2.58716 z" />
    <text
       xml:space="preserve"
       style="font-size:32px;fill:#f9f9f9;-inkscape-font-specification:Arial;font-family:Arial;font-weight:normal;font-style:normal;font-stretch:normal;font-variant:normal"
       x="342.4552"
       y="-155.51938"
       id="text6"
       transform="rotate(45)"><tspan
         sodipodi:role="line"
         id="tspan6"
         x="342.4552"
         y="-155.51938"
         style="font-size:32px;-inkscape-font-specification:Arial;font-family:Arial;font-weight:normal;font-style:normal;font-stretch:normal;font-variant:normal">60</tspan></text>
    <text
       xml:space="preserve"
       style="font-size:32px;fill:#f9f9f9"
       x="-31.206991"
       y="-506.51215"
       id="text6-2"
       transform="rotate(135)"><tspan
         sodipodi:role="line"
         id="tspan6-3"
         x="-31.206991"
         y="-506.51215"
         style="font-style:normal;font-variant:normal;font-weight:normal;font-stretch:normal;font-size:32px;font-family:Arial;-inkscape-font-specification:Arial">135</tspan></text>
    <text
       xml:space="preserve"
       style="font-size:32px;fill:#f9f9f9"
       x="-391.98404"
       y="-144.54767"
       id="text6-2-2"
       transform="rotate(-135)"><tspan
         sodipodi:role="line"
         id="tspan6-3-7"
         x="-391.98404"
         y="-144.54767"
         style="font-style:normal;font-variant:normal;font-weight:normal;font-stretch:normal;font-size:32px;font-family:Arial;-inkscape-font-specification:Arial">225</tspan></text>
    <text
       xml:space="preserve"
       style="font-size:32px;fill:#f9f9f9"
       x="-29.982111"
       y="216.34035"
       id="text6-2-2-4"
       transform="rotate(-45)"><tspan
         sodipodi:role="line"
         id="tspan6-3-7-5"
         x="-29.982111"
         y="216.34035"
         style="font-size:32px">315</tspan></text>
  </g>
  <g
     inkscape:groupmode="layer"
     id="layer3"
     inkscape:label="Position"
     style="display:inline">
    <path
       style="fill:none;stroke:#00d2ff;stroke-width:5.8097;stroke-dasharray:none;stroke-opacity:1"
       d="m 255.94016,196.29068 47.48677,117.96004 -47.48776,-38.01062 -47.45818,36.34397 z"
       id="path6"
       sodipodi:nodetypes="ccccc" />
  </g>
</svg>
